<?xml version="1.0" encoding="utf-8"?>
<!DOCTYPE svg PUBLIC "-//W3C//DTD SVG 1.1//EN" "http://www.w3.org/Graphics/SVG/1.1/DTD/svg11.dtd">
<!-- exported from Silhouette Studio® Business Edition V4.5.735ssbe -->
<svg version="1.1" xmlns="http://www.w3.org/2000/svg" xmlns:xlink="http://www.w3.org/1999/xlink" width="63.50002mm" height="63.50002mm" viewBox="0 0 63.50002 63.50002">
<defs>
<path id="path_957713aa392280cce4a4a7449a04b596" d="M 30.66078 58.20914 C 22.58246 49.58025 16.04044 40.95704 13.37692 35.99844 C 7.689544 25.41033 11.59079 17.12615 13.73843 13.74413 C 15.78116 10.52733 21.23709 4.316082 29.98578 3.792305 C 35.30005 3.474142 47.86285 5.427822 52.10309 18.60421 C 54.00583 24.51706 53.80841 31.15022 47.56665 40.31923 C 42.00351 48.49141 32.90285 58.38658 31.72945 59.2933 C 31.70723 59.27248 31.72202 59.34268 30.66078 58.20914 Z" fill-rule="evenodd" fill="#FFFFFF" fill-opacity="1" stroke="#000000" stroke-opacity="1" stroke-width="0.1" stroke-linecap="round" stroke-linejoin="round"/>
<path id="path_e6042044c203f311a75b9ba34b65dc73" d="M 33.13428 60.63461 C 53.14502 40.07108 55.12502 30.43626 54.97427 24.5308 C 54.62924 11.0171 43.37056 0.8720961 29.89034 1.883138 C 20.78609 2.565972 12.81691 8.773617 9.832062 17.40173 C 5.94452 28.63912 11.6377 37.1965 14.72784 41.68571 C 16.94487 44.90648 20.84131 49.89388 23.98456 53.53787 C 24.13188 53.70863 30.8797 61.72707 31.78079 61.68475 C 32.0546 61.6719 32.36966 61.42036 33.13428 60.63461 Z M 30.6608 58.20913 C 22.58246 49.58025 16.04041 40.95704 13.37692 35.99844 C 7.689544 25.41034 11.59079 17.12616 13.73843 13.74414 C 15.78116 10.52733 21.23706 4.31609 29.98575 3.792313 C 35.30002 3.474152 47.86285 5.42783 52.10306 18.60421 C 54.0058 24.51706 53.80838 31.15022 47.56664 40.31923 C 42.00351 48.4914 32.90283 58.38657 31.72946 59.29331 C 31.70724 59.27248 31.72202 59.34268 30.6608 58.20913 Z M 22.20895 43.77411 C 19.49121 46.98224 31.62114 46.10755 35.33467 43.17773 C 38.26878 40.86285 38.52969 38.47721 41.79327 37.05656 C 44.32643 35.95385 47.41743 36.82185 47.24792 35.21917 C 47.07417 33.57656 40.69545 34.36839 37.41054 38.35001 C 32.68564 44.07704 32.53754 43.61557 22.20895 43.77411 Z M 24.0386 22.98774 C 22.98196 23.71307 23.19629 29.61552 21.82983 33.43703 C 20.07455 38.3459 15.69791 39.01418 18.73318 39.98207 C 22.24786 37.98475 23.97794 32.66174 24.06583 32.50037 C 29.44415 37.82605 29.19035 43.62515 30.72791 41.01704 C 32.18773 38.5408 24.51459 30.9203 24.32489 29.62756 C 24.13193 28.31244 26.55905 21.25756 24.0386 22.98774 Z M 29.01489 29.6774 C 30.22015 23.61674 29.87338 24.91419 30.13565 24.17276 C 32.10501 26.58202 30.19543 26.13351 33.91461 27.72475 C 34.02356 27.77136 36.92426 29.40476 36.87549 27.62794 C 36.85014 26.70328 35.39832 26.66498 32.84741 25.35511 C 30.45151 21.26241 29.89673 16.51005 22.98572 19.85559 C 19.76144 21.41641 16.5777 28.67346 18.56543 28.77036 C 19.97083 28.83886 20.9021 23.48248 22.55563 22.04845 C 24.6022 20.27362 28.01183 20.11168 28.6487 21.16553 C 29.11028 21.92936 27.16823 29.1218 27.35121 29.99531 C 27.65714 31.45573 28.6163 31.13066 30.39703 34.85929 C 31.04245 36.21072 31.92694 39.8747 32.53177 40.20931 C 35.04022 41.59706 32.52429 35.12943 31.82083 33.73293 C 31.77644 33.64484 31.98917 33.97628 29.01489 29.6774 Z M 42.83105 14.20167 C 41.76141 12.334 35.96017 17.05931 39.04955 21.56548 C 42.10616 26.02392 47.66252 22.49242 47.22571 21.08436 C 46.86069 19.90761 44.08749 21.47077 42.578 18.90425 C 41.19327 16.54984 43.25235 14.93726 42.83105 14.20167 Z M 30.07227 18.08606 C 35.07953 16.7464 32.46265 9.001652 27.70912 11.06842 C 24.31377 12.54469 24.92194 19.46401 30.07227 18.08606 Z M 28.46326 16.37923 C 26.61899 15.71113 27.0235 13.31274 28.28444 12.75115 C 28.65485 12.58618 29.32986 12.62067 29.47176 12.63925 C 32.00668 12.97121 31.15829 17.35554 28.46326 16.37923 Z" fill-rule="evenodd" fill="#000000" fill-opacity="1" stroke="#000000" stroke-opacity="1" stroke-width="0.1" stroke-linecap="round" stroke-linejoin="round"/>
</defs>
<g>
<g>
<use xlink:href="#path_957713aa392280cce4a4a7449a04b596"/>
</g>
<g>
<use xlink:href="#path_e6042044c203f311a75b9ba34b65dc73"/>
</g>
</g>
</svg>