<?xml version="1.0" encoding="utf-8"?>
<!DOCTYPE svg PUBLIC "-//W3C//DTD SVG 1.1//EN" "http://www.w3.org/Graphics/SVG/1.1/DTD/svg11.dtd">
<!-- exported from Silhouette Studio® Business Edition V4.5.735ssbe -->
<svg version="1.1" xmlns="http://www.w3.org/2000/svg" xmlns:xlink="http://www.w3.org/1999/xlink" width="304.8mm" height="41.275mm" viewBox="0 0 304.8 41.275">
<defs>
<path id="path_2026ed823f460e1adfd6be880aa170bc" d="M 48.83698 17.85056 C 50.13902 19.97159 51.00004 22.6711 51.67202 25.07067 C 51.73503 25.28496 51.77704 25.56349 51.96608 25.71347 C 52.05002 25.7777 52.19705 25.7777 52.30207 25.75629 C 53.39406 25.52058 54.3811 25.32779 55.51511 25.32779 C 55.93512 25.32779 56.85899 25.49917 56.85899 24.85645 C 56.88 21.89982 56.92201 18.9432 56.98502 15.98657 C 57.00602 14.82961 56.98503 13.587 57.15298 12.45146 C 57.17399 12.34431 57.195 12.23725 57.13199 12.15151 C 56.64904 12.02295 52.93164 12.25866 52.53255 12.43005 C 52.17556 12.58002 52.32259 12.98711 52.3646 13.28706 C 52.78469 15.90083 52.99474 18.81464 52.8267 21.47132 C 52.07078 19.20032 51.41988 16.8864 50.55894 14.65822 C 50.39099 14.20831 49.61406 12.21584 49.23614 12.06586 C 48.77412 11.87298 45.12057 12.60143 45.01562 13.09426 C 44.97361 13.28706 45.14157 14.76537 45.16257 15.08673 C 45.43555 18.1076 45.45655 23.18526 45.01562 26.14189 C 44.95261 26.54898 44.67963 27.57738 44.9106 27.92015 C 45.16257 28.28441 48.69003 28.17727 49.27791 28.13444 C 49.61381 28.11303 49.92881 27.98447 49.97082 27.59879 C 50.20179 25.60632 49.2569 19.993 48.83698 17.85056 Z M 52.21838 27.64161 C 53.16326 27.51306 54.21307 27.57729 55.13711 27.36308 C 55.59912 27.25594 55.91419 26.44183 54.59099 26.54898 C 53.60419 26.63463 52.61729 26.67746 51.6725 27.02031 C 51.35751 27.12737 51.35752 27.55588 51.69351 27.64161 C 51.84046 27.68444 52.07143 27.66303 52.21838 27.64161 Z M 56.77506 26.65604 C 56.37614 26.54898 55.89319 27.02031 56.33412 27.29884 C 56.92208 27.66303 57.34202 26.80602 56.77506 26.65604 Z" fill-rule="evenodd" fill="#000000" fill-opacity="1" stroke="none" stroke-opacity="1" stroke-width="0.1" stroke-linecap="round" stroke-linejoin="round"/>
<path id="path_f3adf2d273e6dd551e8abb9b780e9c8e" d="M 67.45706 11.42486 C 67.64602 11.08209 67.39405 10.58927 67.01613 10.88921 C 66.49117 11.31771 67.20509 11.85337 67.45706 11.42486 Z M 71.94949 13.78323 C 72.09644 13.14052 69.3039 10.80519 68.10714 11.29794 C 67.81316 11.4265 67.85516 11.81217 68.14906 11.89783 C 69.38792 12.30492 70.60569 12.81908 71.44555 13.84748 C 71.5715 14.01886 71.88648 14.04035 71.94949 13.78323 Z M 67.51917 27.68787 C 68.56898 27.51649 69.15695 27.19513 69.78684 26.29529 C 70.56368 25.15975 71.02562 23.83141 71.42454 22.52456 C 72.62131 18.60378 72.66333 14.40454 68.2961 12.73343 C 66.74233 12.13354 64.83166 11.96215 63.19395 12.15495 C 61.09432 12.39057 59.60357 13.46187 59.18364 15.66856 C 58.91066 17.14687 59.20464 18.66809 59.43553 20.12492 C 59.81353 22.46024 60.59037 25.75964 62.669 27.1523 C 63.90778 27.98782 66.11243 27.92358 67.51917 27.68787 Z M 65.73337 22.80309 C 65.33436 22.80309 64.91436 22.71736 64.57837 22.48174 C 63.69634 21.83894 63.36036 18.30391 63.78036 17.31834 C 64.07435 16.63272 64.74641 16.54706 65.39738 16.58989 C 66.55239 16.65413 67.7494 17.27552 67.83342 18.56095 C 67.89644 19.52511 67.51844 21.81752 66.82537 22.48174 C 66.53139 22.76027 66.13237 22.80309 65.73337 22.80309 Z" fill-rule="evenodd" fill="#000000" fill-opacity="1" stroke="none" stroke-opacity="1" stroke-width="0.1" stroke-linecap="round" stroke-linejoin="round"/>
<path id="path_8a822ef4f488ee7a4ec1c441ab9542ff" d="M 81.24551 20.80743 C 80.53161 18.21507 79.88071 15.60121 79.5028 12.94453 C 79.4818 12.83738 79.46079 12.4732 79.41878 12.40896 C 79.29283 12.21608 76.01735 12.88029 75.76538 13.13733 C 75.63943 13.26589 75.59743 13.45877 75.57642 13.63016 C 74.86259 17.93654 74.12767 22.1786 73.2038 26.46365 C 73.16187 26.61363 73.11987 27.04213 73.28783 27.10637 C 74.16969 27.08496 75.68144 27.42773 76.5423 27.68477 C 76.68925 27.72767 77.27721 27.9633 77.38215 27.94189 C 77.63412 27.89906 77.63413 27.53479 77.65514 27.342 C 77.84409 24.89961 77.97004 22.45713 78.30603 20.03616 C 78.60001 21.42882 78.95692 22.79999 79.27183 24.17116 C 79.35585 24.55684 79.35585 25.32811 79.88071 25.28529 C 80.32165 25.26387 82.16931 25.45667 82.37927 25.22105 C 82.37927 25.22105 83.87003 20.65754 84.101 20.07907 C 84.12199 21.3645 84.20601 26.80643 84.54208 27.72767 C 84.68912 28.11327 85.48729 27.89906 85.78135 27.85624 C 86.18052 27.81333 89.03664 27.66335 89.16259 27.51338 C 89.28854 27.36341 88.97364 25.84227 88.93163 25.56374 C 88.32275 21.77159 87.92382 17.8723 87.67185 14.03725 C 87.65085 13.80154 87.65085 13.15882 87.56683 12.98744 C 87.4408 12.73032 84.31169 12.40896 84.05963 12.51611 C 83.68164 12.6875 81.45556 20.05757 81.24551 20.80743 Z M 86.51667 17.12244 C 86.34864 16.65111 86.45366 14.40151 86.1386 14.10157 C 85.97057 13.9301 84.98327 14.08007 84.71021 13.9516 C 84.18501 13.71589 84.47924 13.13741 85.10962 13.13741 C 85.38277 13.13741 86.22286 13.18024 86.45383 13.28738 C 87.27293 13.65157 87.35694 16.15828 87.33593 16.95105 C 87.31493 17.42238 86.68471 17.57236 86.51667 17.12244 Z M 86.72697 18.83646 C 85.99214 18.23656 87.54582 17.61518 87.41988 18.55792 C 87.37787 18.87928 86.97894 19.02925 86.72697 18.83646 Z" fill-rule="evenodd" fill="#000000" fill-opacity="1" stroke="none" stroke-opacity="1" stroke-width="0.1" stroke-linecap="round" stroke-linejoin="round"/>
<path id="path_ad9d5d152859b66e636fb65929da0765" d="M 96.52032 10.78214 C 96.05838 10.52503 95.86942 11.44628 96.39429 11.38204 C 96.68827 11.33913 96.79321 10.93212 96.52032 10.78214 Z M 92.21602 15.68834 C 92.48899 15.49554 93.39178 12.68888 94.04268 12.02475 C 94.48361 11.57483 94.88253 11.70339 95.38647 11.55342 C 95.70146 11.44628 95.68046 11.03918 95.36547 10.97495 C 94.94555 10.88921 93.85371 11.42486 93.51781 11.70339 C 92.97186 12.17473 92.63595 12.83886 92.38397 13.52448 C 92.32104 13.67445 91.37616 16.28831 92.21602 15.68834 Z M 95.15551 25.18182 C 96.64626 25.07475 98.116 25.05334 99.60676 25.13899 C 99.66977 25.82453 99.64877 26.68154 99.79572 27.34575 C 100.0477 28.48122 103.5751 28.28842 104.058 27.2172 C 104.6879 25.82453 102.4203 16.65478 101.9374 15.02649 C 101.6854 14.21239 101.3915 13.35538 100.9085 12.64835 C 100.3837 11.87707 96.73028 11.85565 95.8064 12.02704 C 95.4705 12.09128 95.1135 12.17702 94.84061 12.39123 C 93.20282 13.63392 90.03236 26.14589 90.62032 27.40999 C 90.91422 28.05271 94.69357 28.26701 94.84061 27.66711 C 95.02956 26.89584 95.02956 25.97451 95.15551 25.18182 Z M 95.55443 22.13954 C 95.95335 20.1885 96.18433 18.10874 96.85622 16.22203 C 97.29716 16.24344 97.99006 15.87901 98.34698 16.20061 C 98.70389 16.5008 99.48081 21.45342 99.45981 22.13954 C 98.20002 22.01089 96.81422 22.09663 95.55443 22.13954 Z" fill-rule="evenodd" fill="#000000" fill-opacity="1" stroke="none" stroke-opacity="1" stroke-width="0.1" stroke-linecap="round" stroke-linejoin="round"/>
<path id="path_2fdb481210e6fba3121f007f2d252599" d="M 110.5544 25.92915 C 111.6877 26.76303 113.0729 27.1908 114.4581 27.12656 C 120.778 26.82661 121.24 15.25852 116.2848 12.85912 C 114.3952 11.93787 111.9185 12.02353 110.2185 13.30904 C 110.1975 13.07334 110.2185 12.36638 110.0295 12.21641 C 109.8616 12.08785 106.3761 12.62342 106.0611 12.8163 C 105.8302 12.94486 105.8932 13.18048 105.9142 13.39478 C 106.1662 15.66611 106.2921 17.98027 106.2921 20.25135 C 106.2921 22.43613 106.0822 24.55667 106.0192 26.72012 C 106.0192 26.80577 105.9772 27.38319 106.0192 27.4046 C 106.1872 27.53292 106.4391 27.51142 106.6491 27.53292 C 107.216 27.57599 109.8405 28.37243 110.0504 27.7723 C 110.2395 27.19366 110.3864 26.52928 110.5544 25.92915 Z M 113.1339 23.5505 C 110.7822 22.80064 110.9502 14.80926 113.8687 16.73749 C 115.8004 18.02293 115.7794 24.3861 113.1339 23.5505 Z M 117.3549 27.77124 C 117.5439 27.53553 117.2289 27.257 116.998 27.32132 C 116.494 27.44988 116.998 28.19974 117.3549 27.77124 Z M 115.9062 28.3055 C 116.137 28.15553 115.9691 27.87699 115.7383 27.92006 C 115.1717 28.04928 114.731 28.22165 114.1434 28.22165 C 113.262 28.22165 112.5274 27.92023 111.688 27.72653 C 111.4992 27.68346 111.2683 27.81251 111.3942 28.02697 C 111.5201 28.26267 112.5694 28.54112 112.8423 28.60544 C 113.8076 28.79824 115.0248 28.81966 115.9062 28.3055 Z" fill-rule="evenodd" fill="#000000" fill-opacity="1" stroke="none" stroke-opacity="1" stroke-width="0.1" stroke-linecap="round" stroke-linejoin="round"/>
<path id="path_ff45c3be2d8b16e1b05fecb6e4e06876" d="M 138.2069 22.92822 C 136.8421 21.06423 136.9261 16.47931 136.5692 14.12257 C 136.4012 13.75839 133.2937 13.86553 133.1257 14.07975 C 132.9368 14.31545 132.6428 21.17138 131.572 21.94265 C 130.5011 19.7573 130.9421 15.55806 131.0261 13.13708 C 131.0261 12.9657 131.0471 12.72999 130.8791 12.62293 C 130.4801 12.36581 127.225 12.32298 126.91 12.58002 C 126.7629 12.70858 126.7629 13.1585 126.7629 13.35138 C 126.658 16.97214 126.742 21.40708 128.086 24.81363 C 128.758 26.50615 129.241 26.93466 131.068 26.93466 C 131.635 26.93466 132.2229 26.89183 132.7268 26.6133 C 133.5457 26.16338 134.4485 23.82806 134.5535 22.90681 C 134.7635 23.91379 135.5403 26.89183 136.1702 27.55597 C 136.6741 28.09162 137.577 28.13444 138.2699 28.13444 C 138.9208 28.13444 139.6346 28.15585 140.2226 27.8345 C 142.1123 26.84892 143.1831 18.15051 143.414 16.09371 C 143.477 15.57956 143.7919 12.92287 143.4559 12.64434 C 143.099 12.36581 139.7396 12.1301 139.5507 12.60151 C 139.4877 12.7729 139.5087 12.94429 139.5087 13.11567 C 139.5506 14.87252 139.1727 21.72844 138.2069 22.92822 Z M 134.1092 26.85072 C 133.7733 27.17208 134.3402 27.57909 134.6131 27.27915 C 135.0751 26.7864 134.2352 26.25075 134.1092 26.85072 Z M 132.054 28.88749 C 132.4109 28.84467 133.4818 28.54472 133.6288 28.1798 C 133.7547 27.8792 133.5028 27.62159 133.2088 27.68599 C 131.7811 28.0295 131.2352 28.54472 129.6604 27.79338 C 127.8547 26.93466 128.7995 29.25176 132.054 28.88749 Z" fill-rule="evenodd" fill="#000000" fill-opacity="1" stroke="none" stroke-opacity="1" stroke-width="0.1" stroke-linecap="round" stroke-linejoin="round"/>
<path id="path_6e0afad9224d251b874d6357e0167268" d="M 150.6006 10.78214 C 150.1386 10.52503 149.9497 11.44628 150.4745 11.38204 C 150.7685 11.33913 150.8735 10.93212 150.6006 10.78214 Z M 146.2963 15.68834 C 146.5692 15.49554 147.472 12.68888 148.1229 12.02475 C 148.5639 11.57483 148.9628 11.70339 149.4667 11.55342 C 149.7817 11.44628 149.7607 11.03918 149.4457 10.97495 C 149.0258 10.88921 147.934 11.42486 147.5981 11.70339 C 147.0521 12.17473 146.7162 12.83886 146.4642 13.52448 C 146.4013 13.67445 145.4564 16.28831 146.2963 15.68834 Z M 149.2357 25.18182 C 150.7265 25.07475 152.1962 25.05334 153.687 25.13899 C 153.75 25.82453 153.729 26.68154 153.8759 27.34575 C 154.1279 28.48122 157.6554 28.28842 158.1382 27.2172 C 158.7681 25.82453 156.5005 16.65478 156.0176 15.02649 C 155.7656 14.21239 155.4717 13.35538 154.9888 12.64835 C 154.4639 11.87707 150.8105 11.85565 149.8866 12.02704 C 149.5507 12.09128 149.1938 12.17702 148.9209 12.39123 C 147.2831 13.63392 144.1126 26.14589 144.7006 27.40999 C 144.9945 28.05271 148.7738 28.26701 148.9209 27.66711 C 149.1098 26.89584 149.1098 25.97451 149.2357 25.18182 Z M 149.6347 22.13954 C 150.0336 20.1885 150.2646 18.10874 150.9365 16.22203 C 151.3774 16.24344 152.0703 15.87901 152.4272 16.20061 C 152.7841 16.5008 153.5611 21.45342 153.5401 22.13954 C 152.2803 22.01089 150.8945 22.09663 149.6347 22.13954 Z" fill-rule="evenodd" fill="#000000" fill-opacity="1" stroke="none" stroke-opacity="1" stroke-width="0.1" stroke-linecap="round" stroke-linejoin="round"/>
<path id="path_9341829e46a2b0abaa0c1e3cd93c0251" d="M 169.5032 22.09442 C 169.4822 21.79448 169.1883 21.77306 168.9573 21.79448 C 167.6765 21.90162 166.3117 22.15874 165.0309 22.37295 C 165.136 21.04461 165.136 19.69486 165.1569 18.36652 C 165.1779 17.5095 165.2409 12.73187 164.9679 12.28195 C 164.863 12.11049 164.7579 12.04625 164.569 12.04625 C 163.3512 12.02484 161.9025 12.21763 160.7056 12.47475 C 160.4327 12.53899 159.8868 12.5604 159.9918 12.94608 C 160.4957 14.89573 160.3487 21.34456 160.2438 23.487 L 160.0128 27.02211 C 160.0338 27.10784 160.1178 27.17208 160.2018 27.21499 C 160.3487 27.4292 167.9704 27.12926 169.0202 27.12926 C 169.2512 27.12926 169.5872 27.10784 169.6502 26.82931 C 169.7342 26.4008 169.5662 23.937 169.6082 23.18706 C 169.6292 22.92994 169.7971 22.24439 169.5032 22.09442 Z M 162.5114 28.92893 C 163.5612 28.92893 166.5427 28.99325 167.4246 28.86469 C 167.9494 28.77896 168.0544 28.02909 167.1096 28.09333 C 166.0807 28.15765 162.5744 28.02909 161.8185 28.2648 C 161.5246 28.37186 161.4406 28.6933 161.7345 28.86469 C 161.8605 28.92893 162.3434 28.92893 162.5114 28.92893 Z M 169.5866 28.17899 C 168.5368 28.05051 168.5368 28.80037 168.9987 28.86461 L 169.5447 28.92885 C 169.9856 28.97175 170.0906 28.24331 169.5866 28.17899 Z" fill-rule="evenodd" fill="#000000" fill-opacity="1" stroke="none" stroke-opacity="1" stroke-width="0.1" stroke-linecap="round" stroke-linejoin="round"/>
<path id="path_26f6d6357fdeb3027ac4b969fab4e4aa" d="M 176.0497 23.27173 C 176.8057 24.17157 179.9975 28.00662 181.1524 27.83523 C 181.6143 27.77091 183.6932 24.8786 183.6932 24.4501 C 183.6932 24.30012 183.6092 24.15015 183.4832 24.06442 C 182.8953 23.636 182.0345 23.33605 181.3836 22.97178 C 180.4387 22.43621 179.5148 21.7935 178.675 21.10787 C 180.7116 19.71529 182.7063 17.35855 183.9241 15.21603 C 184.0081 15.15179 184.0501 15.02323 183.9871 14.91608 C 183.9871 14.48758 181.4675 12.34513 181.0476 12.43087 C 180.8797 12.47369 180.8166 12.60225 180.7536 12.73081 C 179.8717 14.57331 177.9612 17.33714 176.3864 18.60116 C 176.3864 16.78008 176.4284 14.91608 176.5544 13.11641 C 176.5753 12.92361 176.6384 12.58075 176.4074 12.47369 C 175.7776 12.19516 171.9776 11.59527 171.8935 12.47369 C 171.7256 12.64507 171.6837 13.39494 171.6416 13.65206 C 171.1377 17.42279 171.3057 21.1507 171.6207 24.94292 C 171.6836 25.73561 171.7256 26.76401 171.9985 27.51387 C 172.0825 27.70667 172.1664 27.81382 172.3764 27.85664 C 172.8803 27.96379 175.9665 28.04952 176.1554 27.68526 C 176.2184 27.5567 176.1763 27.40672 176.1552 27.27817 C 176.0076 25.94982 176.0076 24.60007 176.0497 23.27173 Z M 173.5901 13.54491 L 173.3192 13.65206 C 172.8189 13.88768 172.6722 17.0157 172.7352 17.59418 C 172.7562 17.70132 172.7772 17.78706 172.7562 17.89412 C 172.651 18.34404 172.0831 18.34404 171.9359 17.89412 C 171.7676 17.35855 172.0187 14.85184 172.1442 14.20904 C 172.4162 12.73073 173.9227 12.21649 174.09 13.03067 C 174.1528 13.33062 173.8819 13.60915 173.5901 13.54491 Z M 174.6562 13.50209 C 174.3413 13.35211 174.2993 12.9022 174.6353 12.73081 C 175.4331 12.34513 175.3911 13.86627 174.6562 13.50209 Z" fill-rule="evenodd" fill="#000000" fill-opacity="1" stroke="none" stroke-opacity="1" stroke-width="0.1" stroke-linecap="round" stroke-linejoin="round"/>
<path id="path_a903bf7acc85ee94bd3f886681d6ef42" d="M 190.7412 12.18143 C 190.4262 11.56012 187.3398 11.43157 187.3398 12.20284 C 187.3398 12.37701 187.5707 12.46413 187.7177 12.48587 C 188.4735 12.59473 189.3344 12.30852 190.1323 12.44092 C 190.2793 12.46298 190.4052 12.57332 190.5522 12.5515 C 190.7202 12.52976 190.8252 12.3336 190.7412 12.18143 Z M 186.8359 12.61574 C 187.0248 12.35861 186.9199 11.9087 186.5841 11.86587 C 185.7656 11.78014 186.3743 13.21563 186.8359 12.61574 Z M 187.8017 28.02059 C 188.2426 28.02059 190.1743 27.99918 190.4473 27.91344 C 190.6362 27.84921 190.7202 27.74206 190.7202 27.52777 L 190.6992 14.95147 C 190.6992 14.6087 190.7622 13.79451 190.4052 13.60171 C 190.2163 13.49457 189.5864 13.51598 189.3554 13.51598 C 188.7675 13.51598 185.702 13.60171 185.5551 14.2016 C 185.5341 14.30867 185.996 26.37089 186.08 27.24932 C 186.1009 27.44211 186.1219 27.67782 186.269 27.82779 C 186.5209 28.06342 187.4657 28.02059 187.8017 28.02059 Z" fill-rule="evenodd" fill="#000000" fill-opacity="1" stroke="none" stroke-opacity="1" stroke-width="0.1" stroke-linecap="round" stroke-linejoin="round"/>
<path id="path_16ef8e1a6ddd22dbc577bbc5c70d0127" d="M 196.8031 17.85056 C 198.1052 19.97159 198.9662 22.6711 199.6382 25.07067 C 199.7012 25.28496 199.7432 25.56349 199.9322 25.71347 C 200.0162 25.7777 200.1632 25.7777 200.2682 25.75629 C 201.3602 25.52058 202.3473 25.32779 203.4813 25.32779 C 203.9013 25.32779 204.8252 25.49917 204.8252 24.85645 C 204.8462 21.89982 204.8882 18.9432 204.9512 15.98657 C 204.9722 14.82961 204.9512 13.587 205.1192 12.45146 C 205.1402 12.34431 205.1612 12.23725 205.0981 12.15151 C 204.6152 12.02295 200.8978 12.25866 200.4987 12.43005 C 200.1417 12.58002 200.2887 12.98711 200.3307 13.28706 C 200.7508 15.90083 200.9609 18.81464 200.7929 21.47132 C 200.0369 19.20032 199.386 16.8864 198.5251 14.65822 C 198.3571 14.20831 197.5802 12.21584 197.2023 12.06586 C 196.7403 11.87298 193.0867 12.60143 192.9818 13.09426 C 192.9398 13.28706 193.1077 14.76537 193.1287 15.08673 C 193.4017 18.1076 193.4227 23.18526 192.9818 26.14189 C 192.9188 26.54898 192.6458 27.57738 192.8768 27.92015 C 193.1287 28.28441 196.6562 28.17727 197.2441 28.13444 C 197.58 28.11303 197.8949 27.98447 197.937 27.59879 C 198.1679 25.60632 197.2231 19.993 196.8031 17.85056 Z M 200.1845 27.64161 C 201.1294 27.51306 202.1792 27.57729 203.1033 27.36308 C 203.5653 27.25594 203.8804 26.44183 202.5572 26.54898 C 201.5704 26.63463 200.5835 26.67746 199.6387 27.02031 C 199.3237 27.12737 199.3237 27.55588 199.6597 27.64161 C 199.8066 27.68444 200.0376 27.66303 200.1845 27.64161 Z M 204.7413 26.65604 C 204.3423 26.54898 203.8594 27.02031 204.3003 27.29884 C 204.8882 27.66303 205.3081 26.80602 204.7413 26.65604 Z" fill-rule="evenodd" fill="#000000" fill-opacity="1" stroke="none" stroke-opacity="1" stroke-width="0.1" stroke-linecap="round" stroke-linejoin="round"/>
<path id="path_46ab6bcacbf967c209a88245f64c4d12" d="M 215.8826 22.37181 C 214.4968 26.60349 210.0876 21.88585 212.3972 17.74717 C 212.9641 16.73929 215.0007 15.64568 215.5676 17.27372 C 215.6726 17.55225 215.5886 18.00217 215.6727 18.21638 C 215.7776 18.45209 219.305 18.6663 219.7879 18.58064 C 219.8719 18.51632 219.8929 18.38776 219.9139 18.2807 C 219.9559 17.83078 219.8509 17.31655 219.8299 16.84521 C 219.7669 15.53853 219.8509 14.2316 219.8509 12.92475 C 219.158 12.21772 216.6384 11.93918 215.6516 11.91777 C 210.3607 11.81062 206.7075 15.13119 206.9174 20.70102 C 206.9595 21.98637 207.2743 23.2933 207.8622 24.42877 C 211.0956 30.74911 220.7958 28.32814 220.3129 21.08654 C 220.2918 20.74377 220.2498 20.3795 219.9979 20.14388 C 219.389 19.58681 213.8669 19.47967 213.699 20.25094 C 213.657 20.48665 213.72 21.51496 213.741 21.81491 C 213.8879 23.31447 214.8748 22.52178 215.8826 22.37181 Z M 213.5523 27.52474 C 212.3766 27.35336 209.0801 26.02501 208.9121 24.63243 C 208.8491 24.16102 209.3951 24.01105 209.689 24.3539 C 210.8858 25.74648 212.3975 26.88202 214.3292 26.66773 C 214.4762 26.64632 214.6022 26.64632 214.7281 26.73205 C 214.9591 26.88202 215.0221 27.13906 214.8331 27.35336 C 214.6022 27.61048 213.8673 27.56757 213.5523 27.52474 Z M 215.442 26.43211 C 215.589 26.13216 216.0299 26.11067 216.1979 26.41061 C 216.6388 27.24621 215.0221 27.26762 215.442 26.43211 Z" fill-rule="evenodd" fill="#000000" fill-opacity="1" stroke="none" stroke-opacity="1" stroke-width="0.1" stroke-linecap="round" stroke-linejoin="round"/>
<path id="path_0cd4dc35dd5503fca734324496d7f6ea" d="M 231.3055 28.05018 C 231.6203 28.093 234.5798 27.8148 235.3564 27.8148 C 235.5033 27.8148 235.8602 27.79338 235.9651 27.70773 C 236.0701 27.62216 236.0701 27.30113 236.0701 27.17274 C 235.9231 23.64139 235.6922 20.15287 235.6712 16.62152 C 236.343 16.53595 236.9939 16.60019 237.6657 16.60019 C 238.0442 16.60019 238.5064 16.60019 238.8006 16.32067 C 239.3468 15.80464 239.3258 13.2676 239.3258 12.4535 C 239.1159 12.11073 239.0529 12.04641 238.633 12.00359 C 235.2528 11.68223 231.8515 12.00359 228.4921 11.57508 C 228.2192 11.53225 227.6103 11.44652 227.3793 11.59649 C 227.2323 11.68223 227.1484 11.85361 227.0853 12.025 C 226.9594 12.41068 226.8964 16.01002 227.0223 16.41711 C 227.1064 16.65274 227.2323 16.86703 227.5053 16.86703 C 228.4921 16.88845 229.6889 16.56709 230.6967 16.45994 C 230.3608 18.90266 230.6127 23.87374 230.7597 26.44502 C 230.7807 26.74464 230.7597 28.32871 231.3055 28.05018 Z M 232.7102 13.48165 C 232.3742 13.37451 232.3322 12.92459 232.6052 12.73179 C 232.7732 12.62465 236.8255 12.38894 236.9305 12.43184 C 237.2244 12.53891 237.2874 13.05315 237.0145 13.22453 C 236.9305 13.26736 232.8572 13.52448 232.7102 13.48165 Z M 237.9401 13.2676 C 237.1423 12.62489 238.9059 12.025 238.591 13.03198 C 238.507 13.31051 238.1711 13.46049 237.9401 13.2676 Z" fill-rule="evenodd" fill="#000000" fill-opacity="1" stroke="none" stroke-opacity="1" stroke-width="0.1" stroke-linecap="round" stroke-linejoin="round"/>
<path id="path_1d603ee866a2ff6a09607884a82dff7b" d="M 248.7637 11.42486 C 248.9527 11.08209 248.7007 10.58927 248.3228 10.88921 C 247.7978 11.31771 248.5117 11.85337 248.7637 11.42486 Z M 253.2562 13.78323 C 253.4031 13.14052 250.6106 10.80519 249.4138 11.29794 C 249.1198 11.4265 249.1618 11.81217 249.4557 11.89783 C 250.6946 12.30492 251.9124 12.81908 252.7522 13.84748 C 252.8782 14.01886 253.1932 14.04035 253.2562 13.78323 Z M 248.8258 27.68787 C 249.8756 27.51649 250.4636 27.19513 251.0935 26.29529 C 251.8703 25.15975 252.3323 23.83141 252.7312 22.52456 C 253.928 18.60378 253.97 14.40454 249.6028 12.73343 C 248.049 12.13354 246.1383 11.96215 244.5006 12.15495 C 242.401 12.39057 240.9102 13.46187 240.4903 15.66856 C 240.2173 17.14687 240.5113 18.66809 240.7422 20.12492 C 241.1202 22.46024 241.897 25.75964 243.9757 27.1523 C 245.2144 27.98782 247.4191 27.92358 248.8258 27.68787 Z M 247.04 22.80309 C 246.641 22.80309 246.221 22.71736 245.8851 22.48174 C 245.003 21.83894 244.667 18.30391 245.087 17.31834 C 245.381 16.63272 246.0531 16.54706 246.704 16.58989 C 247.8591 16.65413 249.0561 17.27552 249.1401 18.56095 C 249.2031 19.52511 248.8251 21.81752 248.132 22.48174 C 247.838 22.76027 247.439 22.80309 247.04 22.80309 Z" fill-rule="evenodd" fill="#000000" fill-opacity="1" stroke="none" stroke-opacity="1" stroke-width="0.1" stroke-linecap="round" stroke-linejoin="round"/>
<path id="path_83ad6ff2e3ccf05f27565562f3e18667" d="M 266.1212 26.48809 C 266.7091 25.37412 266.8351 24.00296 266.9191 22.76043 C 267.066 20.74647 266.6041 15.86168 266.3102 13.74057 C 266.2682 13.46212 266.2472 13.16209 266.2052 12.88364 C 266.1842 12.69076 266.0582 12.62652 265.8903 12.5622 C 265.4073 12.3694 262.4258 12.32658 262.0898 12.75508 C 261.46 13.54777 263.0137 20.03951 262.3645 21.79636 C 262.176 22.2891 261.6105 22.78185 261.066 22.78185 C 258.9508 22.76043 259.5582 19.43962 259.7466 18.06837 C 259.8304 17.5328 260.6263 13.31207 260.6053 13.24783 C 260.5634 13.05503 260.4796 12.90506 260.2911 12.84082 C 260.1445 12.7765 259.0552 12.73367 258.8248 12.73367 C 258.2998 12.71226 256.8717 12.64802 256.4937 13.0122 C 256.1157 13.35497 255.3806 21.88209 255.3596 22.95331 C 255.3386 23.76741 255.3386 24.62434 255.6951 25.37412 C 256.7018 27.43075 261.5044 28.07347 263.5387 28.07347 C 264.6095 28.07347 265.6173 27.45217 266.1212 26.48809 Z M 255.4016 26.95967 C 254.8347 26.74546 255.1496 28.00923 255.6535 27.51657 C 255.8845 27.30236 255.7376 26.89543 255.4016 26.95967 Z M 261.2178 29.44472 C 261.4488 29.33757 261.5117 28.9948 261.2598 28.86624 C 260.7979 28.63054 259.4331 28.65203 258.7822 28.50206 C 258.0893 28.35209 257.4594 28.13779 256.7875 27.85926 C 256.4305 27.70929 256.1996 28.18062 256.4096 28.35209 C 257.1865 29.01621 260.2939 29.87322 261.2178 29.44472 Z" fill-rule="evenodd" fill="#000000" fill-opacity="1" stroke="none" stroke-opacity="1" stroke-width="0.1" stroke-linecap="round" stroke-linejoin="round"/>
<path id="path_93168d4dfab4662a34972632d1602d5e" d="M 279.6658 13.53486 C 279.5189 12.76358 278.595 13.25633 279.0569 13.70625 C 279.2879 13.94195 279.7709 14.00619 279.6658 13.53486 Z M 273.7664 23.94869 C 274.3543 24.78429 276.9159 27.93371 277.8397 27.95513 C 278.6165 27.97654 281.2201 25.44842 280.5272 25.01991 C 279.1414 24.14157 277.7138 23.22024 276.4969 22.10619 C 278.7225 21.27051 280.8011 18.91344 280.0242 16.34217 C 279.3314 14.07084 276.9168 13.25657 274.8376 13.17084 C 273.0947 13.08511 271.3728 13.42796 269.6929 13.85654 C 269.42 13.92078 268.6221 14.00652 268.8321 14.43502 C 269.42 15.67779 269.3779 23.32739 269.3569 24.91285 C 269.3359 25.76986 269.126 27.01246 269.2939 27.84798 C 269.3149 27.95513 269.399 28.04078 269.5039 28.08369 C 269.7979 28.19075 273.1995 28.12651 273.5145 28.06227 C 273.9764 27.95513 273.8715 27.29091 273.8504 26.92673 C 273.8084 25.94116 273.8084 24.93426 273.7664 23.94869 Z M 273.2413 16.27858 C 277.2729 15.46448 277.7138 18.84962 273.5353 19.44951 C 273.4303 18.3997 273.4514 17.32839 273.2413 16.27858 Z M 278.0074 12.49396 C 278.2173 12.42972 278.1963 12.1726 278.0494 12.04404 C 277.8396 11.87265 276.1605 11.59413 275.8457 11.57271 C 274.9428 11.48698 274.061 11.57271 273.1582 11.61513 C 272.9901 11.61513 272.5702 11.65755 272.4443 11.76355 C 272.2763 11.89072 272.2763 12.25114 272.5283 12.27239 C 274.103 12.44198 275.8877 12.02263 277.4198 12.38681 C 277.5458 12.40831 277.8815 12.53679 278.0074 12.49396 Z" fill-rule="evenodd" fill="#000000" fill-opacity="1" stroke="none" stroke-opacity="1" stroke-width="0.1" stroke-linecap="round" stroke-linejoin="round"/>
<path id="path_85ee05a57d9167c210abe196782b5fe4" d="M 289.9473 27.62249 C 292.0882 26.97977 293.7673 24.64445 293.0956 22.35228 C 292.0671 18.86073 286.5051 18.34666 286.0644 17.12571 C 285.5817 15.84044 287.4497 14.94076 288.4572 15.28345 C 289.5485 15.66905 289.5276 16.84717 289.6744 17.76842 C 289.7164 18.06837 289.9263 18.08978 290.1782 18.11119 C 290.514 18.1541 293.3895 17.87557 293.7043 17.76842 C 294.2081 17.59704 294.166 16.86859 294.1451 16.44024 C 294.0401 14.9191 293.2849 13.655 292.005 12.8409 C 290.1168 11.64112 287.4514 11.66253 285.4147 12.49813 C 283.735 13.20508 282.1603 14.70481 281.9293 16.63304 C 281.3834 21.23839 287.2834 20.18883 288.3542 22.67355 C 288.6692 23.38043 288.3962 24.4729 287.4934 24.4729 C 286.3596 24.4729 286.8005 23.33752 286.5275 22.80195 C 286.3175 22.37345 283.2731 22.9091 282.9161 23.23046 C 282.7272 23.40184 282.7272 23.63746 282.7482 23.87317 C 282.958 27.81529 286.883 28.52233 289.9473 27.62249 Z M 289.1483 26.61649 C 289.3162 26.40219 290.975 26.01652 291.4789 24.77358 C 291.6678 24.30217 291.7308 24.00222 291.7308 23.4879 C 291.7308 22.99499 292.6753 22.71646 292.5707 23.89458 C 292.4447 25.50195 291.164 26.78779 289.6942 27.28078 C 289.2952 27.40934 288.8544 26.98075 289.1483 26.61649 Z M 287.881 27.42904 C 287.2301 26.80773 288.7627 26.29358 288.5948 27.19341 C 288.5318 27.51477 288.1328 27.66474 287.881 27.42904 Z" fill-rule="evenodd" fill="#000000" fill-opacity="1" stroke="none" stroke-opacity="1" stroke-width="0.1" stroke-linecap="round" stroke-linejoin="round"/>
<path id="path_ab3215824f79e20f8d0e38d02bd9c6d8" d="M 21.40386 34.13542 C 30.755 24.52597 31.68027 20.02358 31.60981 17.26392 C 31.44858 10.9489 26.18735 6.208087 19.88796 6.680552 C 15.6335 6.999644 11.90946 9.90051 10.51462 13.93247 C 8.697947 19.18377 11.3584 23.18267 12.80245 25.28051 C 13.83847 26.78558 15.65929 29.11622 17.12816 30.81908 C 17.197 30.89888 20.3503 34.64594 20.77139 34.62616 C 20.89933 34.62016 21.04655 34.50261 21.40386 34.13542 Z M 20.24799 33.00198 C 16.47295 28.96966 13.41582 24.93999 12.17116 22.62282 C 9.513414 17.67494 11.33648 13.8037 12.34009 12.22326 C 13.29467 10.72003 15.84424 7.817483 19.93255 7.572719 C 22.41594 7.42404 28.28661 8.337006 30.26807 14.4944 C 31.15725 17.2575 31.06499 20.35722 28.14819 24.64194 C 25.5485 28.46084 21.29573 33.08491 20.74739 33.50863 C 20.73701 33.49889 20.74391 33.5317 20.24799 33.00198 Z M 16.29842 26.25643 C 15.02839 27.7556 20.69678 27.34686 22.43213 25.97774 C 23.80326 24.89598 23.92518 23.78116 25.45026 23.11728 C 26.63404 22.60198 28.07848 23.0076 27.99926 22.25866 C 27.91807 21.49106 24.93726 21.86108 23.4022 23.72172 C 21.19422 26.39799 21.12502 26.18234 16.29842 26.25643 Z M 17.15341 16.54284 C 16.65965 16.88179 16.7598 19.64004 16.12124 21.42585 C 15.30099 23.7198 13.25576 24.03209 14.67417 24.48439 C 16.3166 23.55103 17.12507 21.06356 17.16614 20.98815 C 19.67947 23.47686 19.56086 26.18682 20.27937 24.96803 C 20.96155 23.81087 17.37584 20.24977 17.2872 19.64566 C 17.19703 19.0311 18.33123 15.73432 17.15341 16.54284 Z M 19.47886 19.66895 C 20.04209 16.83678 19.88003 17.44308 20.0026 17.09661 C 20.9229 18.22247 20.03054 18.01288 21.76852 18.75647 C 21.81944 18.77826 23.17494 19.54155 23.15216 18.71124 C 23.14031 18.27914 22.46186 18.26124 21.26982 17.64913 C 20.15019 15.73659 19.89096 13.51578 16.66139 15.07917 C 15.15468 15.80855 13.66689 19.19981 14.59577 19.24509 C 15.25252 19.27711 15.6877 16.77404 16.46042 16.10391 C 17.41679 15.27452 19.01013 15.19885 19.30774 15.69132 C 19.52344 16.04826 18.61591 19.40932 18.70142 19.81752 C 18.84438 20.49998 19.29259 20.34808 20.12474 22.09048 C 20.42635 22.72202 20.83968 24.43421 21.12232 24.59058 C 22.29453 25.23908 21.11882 22.21672 20.79009 21.56413 C 20.76936 21.52296 20.86875 21.67785 19.47886 19.66895 Z M 25.93523 12.43707 C 25.43538 11.56429 22.72444 13.77246 24.16811 15.87822 C 25.59649 17.96167 28.193 16.31138 27.98888 15.65339 C 27.81829 15.10348 26.52237 15.83395 25.81697 14.63461 C 25.16988 13.53438 26.13211 12.78081 25.93523 12.43707 Z M 19.97297 14.25227 C 22.3129 13.62623 21.09002 10.00707 18.86868 10.97289 C 17.282 11.66275 17.56619 14.89619 19.97297 14.25227 Z M 19.22108 13.45465 C 18.35925 13.14244 18.54828 12.02167 19.13752 11.75923 C 19.31061 11.68214 19.62606 11.69826 19.69237 11.70694 C 20.87695 11.86207 20.48048 13.91089 19.22108 13.45465 Z" fill-rule="evenodd" fill="#000000" fill-opacity="1" stroke="#000000" stroke-opacity="1" stroke-width="0.1" stroke-linecap="round" stroke-linejoin="round"/>
</defs>
<g>
<g>
<g>
<use xlink:href="#path_2026ed823f460e1adfd6be880aa170bc"/>
</g>
<g>
<use xlink:href="#path_f3adf2d273e6dd551e8abb9b780e9c8e"/>
</g>
<g>
<use xlink:href="#path_8a822ef4f488ee7a4ec1c441ab9542ff"/>
</g>
<g>
<use xlink:href="#path_ad9d5d152859b66e636fb65929da0765"/>
</g>
<g>
<use xlink:href="#path_2fdb481210e6fba3121f007f2d252599"/>
</g>
<g>
<use xlink:href="#path_ff45c3be2d8b16e1b05fecb6e4e06876"/>
</g>
<g>
<use xlink:href="#path_6e0afad9224d251b874d6357e0167268"/>
</g>
<g>
<use xlink:href="#path_9341829e46a2b0abaa0c1e3cd93c0251"/>
</g>
<g>
<use xlink:href="#path_26f6d6357fdeb3027ac4b969fab4e4aa"/>
</g>
<g>
<use xlink:href="#path_a903bf7acc85ee94bd3f886681d6ef42"/>
</g>
<g>
<use xlink:href="#path_16ef8e1a6ddd22dbc577bbc5c70d0127"/>
</g>
<g>
<use xlink:href="#path_46ab6bcacbf967c209a88245f64c4d12"/>
</g>
<g>
<use xlink:href="#path_0cd4dc35dd5503fca734324496d7f6ea"/>
</g>
<g>
<use xlink:href="#path_1d603ee866a2ff6a09607884a82dff7b"/>
</g>
<g>
<use xlink:href="#path_83ad6ff2e3ccf05f27565562f3e18667"/>
</g>
<g>
<use xlink:href="#path_93168d4dfab4662a34972632d1602d5e"/>
</g>
<g>
<use xlink:href="#path_85ee05a57d9167c210abe196782b5fe4"/>
</g>
</g>
<g>
<use xlink:href="#path_ab3215824f79e20f8d0e38d02bd9c6d8"/>
</g>
</g>
</svg>