<?xml version="1.0" encoding="utf-8"?>
<!DOCTYPE svg PUBLIC "-//W3C//DTD SVG 1.1//EN" "http://www.w3.org/Graphics/SVG/1.1/DTD/svg11.dtd">
<!-- exported from Silhouette Studio® Business Edition V4.5.735ssbe -->
<svg version="1.1" xmlns="http://www.w3.org/2000/svg" xmlns:xlink="http://www.w3.org/1999/xlink" width="304.8mm" height="41.275mm" viewBox="0 0 304.8 41.275">
<defs>
<path id="path_a804f8b2661a56bbad1be4935fe6c12b" d="M 58.32904 17.85056 C 59.63107 19.97158 60.4921 22.67109 61.16408 25.07066 C 61.22709 25.28495 61.2691 25.56348 61.45814 25.71346 C 61.54208 25.77769 61.68911 25.77769 61.79414 25.75628 C 62.88612 25.52058 63.87317 25.32777 65.00717 25.32777 C 65.42719 25.32777 66.35105 25.49916 66.35105 24.85645 C 66.37206 21.89982 66.41407 18.94318 66.47708 15.98656 C 66.49809 14.82961 66.4771 13.587 66.64505 12.45145 C 66.66605 12.34431 66.68705 12.23724 66.62404 12.15151 C 66.1411 12.02295 62.4237 12.25865 62.02462 12.43004 C 61.66762 12.58001 61.81465 12.98711 61.85666 13.28705 C 62.27675 15.90083 62.48679 18.81463 62.31876 21.47131 C 61.56284 19.20031 60.91195 16.8864 60.051 14.65822 C 59.88305 14.2083 59.10612 12.21583 58.72821 12.06586 C 58.26619 11.87298 54.61263 12.60143 54.50768 13.09425 C 54.46568 13.28705 54.63363 14.76537 54.65463 15.08672 C 54.92761 18.10759 54.94862 23.18525 54.50768 26.14188 C 54.44466 26.54897 54.17169 27.57737 54.40266 27.92014 C 54.65463 28.2844 58.18209 28.17725 58.76997 28.13443 C 59.10588 28.11301 59.42087 27.98446 59.46288 27.59878 C 59.69384 25.60631 58.74896 19.993 58.32904 17.85056 Z M 61.71044 27.6416 C 62.65532 27.51305 63.70514 27.57729 64.62917 27.36308 C 65.09119 27.25593 65.40626 26.44183 64.08305 26.54897 C 63.09625 26.63462 62.10937 26.67744 61.16457 27.0203 C 60.84958 27.12737 60.84958 27.55587 61.18557 27.6416 C 61.33252 27.68443 61.56349 27.66302 61.71044 27.6416 Z M 66.26712 26.65604 C 65.86819 26.54897 65.38525 27.0203 65.82619 27.29884 C 66.41415 27.66302 66.83408 26.80601 66.26712 26.65604 Z" fill-rule="evenodd" fill="#000000" fill-opacity="1" stroke="none" stroke-opacity="1" stroke-width="0.1" stroke-linecap="round" stroke-linejoin="round"/>
<path id="path_aa7d5050e85088f10fb34c87cefb66df" d="M 76.94913 11.42486 C 77.13808 11.08208 76.88611 10.58926 76.50819 10.88921 C 75.98325 11.31771 76.69716 11.85336 76.94913 11.42486 Z M 81.44156 13.78323 C 81.58851 13.14051 78.79597 10.80518 77.5992 11.29793 C 77.30522 11.42649 77.34723 11.81217 77.64113 11.89782 C 78.87999 12.30492 80.09776 12.81907 80.93761 13.84747 C 81.06355 14.01885 81.37854 14.04034 81.44156 13.78323 Z M 77.01124 27.68787 C 78.06105 27.51648 78.64902 27.19512 79.27892 26.29528 C 80.05575 25.15974 80.51769 23.8314 80.91661 22.52455 C 82.11338 18.60377 82.15539 14.40453 77.78816 12.73342 C 76.2344 12.13353 74.32372 11.96214 72.68602 12.15494 C 70.58638 12.39056 69.09563 13.46187 68.6757 15.66856 C 68.40273 17.14687 68.69671 18.66809 68.9276 20.12491 C 69.3056 22.46023 70.08243 25.75963 72.16106 27.15229 C 73.39984 27.98781 75.60451 27.92357 77.01124 27.68787 Z M 75.22543 22.80309 C 74.82643 22.80309 74.40643 22.71735 74.07043 22.48173 C 73.18841 21.83893 72.85242 18.3039 73.27243 17.31834 C 73.56641 16.63271 74.23847 16.54706 74.88945 16.58988 C 76.04446 16.65412 77.24147 17.27551 77.32549 18.56094 C 77.3885 19.5251 77.0105 21.81751 76.31743 22.48173 C 76.02345 22.76026 75.62444 22.80309 75.22543 22.80309 Z" fill-rule="evenodd" fill="#000000" fill-opacity="1" stroke="none" stroke-opacity="1" stroke-width="0.1" stroke-linecap="round" stroke-linejoin="round"/>
<path id="path_554ccde558f46f37526103ba2282be8d" d="M 90.73759 20.80743 C 90.02369 18.21507 89.37278 15.6012 88.99486 12.94453 C 88.97385 12.83738 88.95284 12.47319 88.91083 12.40896 C 88.78489 12.21607 85.5094 12.88029 85.25743 13.13732 C 85.13148 13.26588 85.08947 13.45876 85.06847 13.63015 C 84.35464 17.93653 83.61974 22.1786 82.69586 26.46365 C 82.65394 26.61362 82.61193 27.04212 82.77988 27.10636 C 83.66175 27.08495 85.17352 27.42772 86.03438 27.68476 C 86.18133 27.72767 86.76928 27.96329 86.87422 27.94188 C 87.1262 27.89905 87.1262 27.53478 87.1472 27.34199 C 87.33616 24.8996 87.4621 22.45712 87.7981 20.03615 C 88.09208 21.42881 88.449 22.79998 88.7639 24.17115 C 88.84792 24.55682 88.84792 25.3281 89.37279 25.28528 C 89.81372 25.26386 91.66138 25.45667 91.87135 25.22104 C 91.87135 25.22104 93.36208 20.65753 93.59305 20.07906 C 93.61406 21.36449 93.69809 26.80642 94.03416 27.72767 C 94.1812 28.11327 94.97936 27.89905 95.27342 27.85622 C 95.67259 27.81332 98.52872 27.66335 98.65466 27.51337 C 98.78061 27.3634 98.46571 25.84226 98.42371 25.56373 C 97.81482 21.77158 97.41589 17.87229 97.16391 14.03724 C 97.14291 13.80154 97.14291 13.15882 97.0589 12.98743 C 96.93286 12.73031 93.80376 12.40896 93.55171 12.5161 C 93.1737 12.68748 90.94764 20.05756 90.73759 20.80743 Z M 96.00873 17.12243 C 95.84069 16.6511 95.94572 14.4015 95.63066 14.10156 C 95.46262 13.93009 94.47533 14.08007 94.20227 13.95159 C 93.67706 13.71588 93.97128 13.13741 94.60167 13.13741 C 94.87481 13.13741 95.71493 13.18023 95.94589 13.28738 C 96.76498 13.65156 96.84899 16.15827 96.82799 16.95104 C 96.80698 17.42237 96.17677 17.57235 96.00873 17.12243 Z M 96.21904 18.83645 C 95.48421 18.23656 97.03789 17.61517 96.91194 18.55791 C 96.86993 18.87927 96.471 19.02925 96.21904 18.83645 Z" fill-rule="evenodd" fill="#000000" fill-opacity="1" stroke="none" stroke-opacity="1" stroke-width="0.1" stroke-linecap="round" stroke-linejoin="round"/>
<path id="path_4cc4acff0d02d441fc142f8bdffa34c7" d="M 106.0124 10.78214 C 105.5504 10.52502 105.3615 11.44627 105.8863 11.38203 C 106.1803 11.33912 106.2853 10.93211 106.0124 10.78214 Z M 101.7081 15.68833 C 101.9811 15.49553 102.8839 12.68887 103.5347 12.02474 C 103.9757 11.57483 104.3746 11.70339 104.8785 11.55341 C 105.1935 11.44627 105.1725 11.03918 104.8575 10.97494 C 104.4376 10.88921 103.3458 11.42486 103.0099 11.70339 C 102.4639 12.17472 102.128 12.83885 101.876 13.52448 C 101.8131 13.67445 100.8682 16.28831 101.7081 15.68833 Z M 104.6476 25.18181 C 106.1383 25.07475 107.6081 25.05333 109.0988 25.13898 C 109.1618 25.82452 109.1408 26.68153 109.2878 27.34575 C 109.5398 28.48121 113.0672 28.28841 113.5501 27.21719 C 114.18 25.82452 111.9124 16.65478 111.4294 15.02649 C 111.1774 14.21239 110.8835 13.35538 110.4006 12.64834 C 109.8757 11.87706 106.2223 11.85565 105.2985 12.02703 C 104.9626 12.09127 104.6056 12.17701 104.3327 12.39122 C 102.6949 13.63391 99.52444 26.14588 100.1124 27.40999 C 100.4063 28.0527 104.1857 28.267 104.3327 27.66711 C 104.5216 26.89583 104.5216 25.97449 104.6476 25.18181 Z M 105.0465 22.13953 C 105.4454 20.18849 105.6764 18.10873 106.3483 16.22202 C 106.7892 16.24343 107.4821 15.87901 107.839 16.20061 C 108.1959 16.5008 108.9729 21.45341 108.9519 22.13953 C 107.6921 22.01089 106.3063 22.09662 105.0465 22.13953 Z" fill-rule="evenodd" fill="#000000" fill-opacity="1" stroke="none" stroke-opacity="1" stroke-width="0.1" stroke-linecap="round" stroke-linejoin="round"/>
<path id="path_811f61c365972d3c5016f70bee350d96" d="M 120.0464 25.92914 C 121.1798 26.76302 122.565 27.19079 123.9502 27.12655 C 130.2701 26.82661 130.732 15.25851 125.7768 12.85912 C 123.8873 11.93787 121.4106 12.02352 119.7105 13.30904 C 119.6895 13.07333 119.7105 12.36637 119.5216 12.2164 C 119.3536 12.08784 115.8682 12.62341 115.5532 12.81629 C 115.3222 12.94485 115.3852 13.18047 115.4062 13.39477 C 115.6582 15.6661 115.7842 17.98026 115.7842 20.25134 C 115.7842 22.43612 115.5743 24.55666 115.5113 26.72011 C 115.5113 26.80576 115.4693 27.38318 115.5113 27.40459 C 115.6792 27.53291 115.9312 27.51141 116.1412 27.53291 C 116.708 27.57597 119.3326 28.37243 119.5425 27.77229 C 119.7316 27.19365 119.8785 26.52927 120.0464 25.92914 Z M 122.6259 23.5505 C 120.2743 22.80064 120.4423 14.80926 123.3607 16.73749 C 125.2924 18.02292 125.2714 24.38609 122.6259 23.5505 Z M 126.847 27.77122 C 127.036 27.53552 126.721 27.25699 126.49 27.32131 C 125.9861 27.44987 126.49 28.19973 126.847 27.77122 Z M 125.3983 28.30549 C 125.6291 28.15552 125.4612 27.87698 125.2303 27.92006 C 124.6638 28.04927 124.2231 28.22163 123.6355 28.22163 C 122.7541 28.22163 122.0195 27.92022 121.18 27.72652 C 120.9912 27.68345 120.7604 27.8125 120.8863 28.02695 C 121.0122 28.26266 122.0615 28.54111 122.3343 28.60544 C 123.2996 28.79823 124.5168 28.81965 125.3983 28.30549 Z" fill-rule="evenodd" fill="#000000" fill-opacity="1" stroke="none" stroke-opacity="1" stroke-width="0.1" stroke-linecap="round" stroke-linejoin="round"/>
<path id="path_7bbd225650d9e5980b92b53d94c01d51" d="M 147.699 22.92822 C 146.3342 21.06422 146.4182 16.4793 146.0612 14.12257 C 145.8932 13.75838 142.7858 13.86553 142.6178 14.07974 C 142.4289 14.31544 142.1349 21.17136 141.0641 21.94264 C 139.9932 19.75729 140.4342 15.55805 140.5182 13.13708 C 140.5182 12.96569 140.5392 12.72999 140.3711 12.62292 C 139.9721 12.3658 136.717 12.32298 136.402 12.58001 C 136.255 12.70857 136.255 13.15849 136.255 13.35137 C 136.15 16.97213 136.2341 21.40707 137.578 24.81362 C 138.2501 26.50614 138.7331 26.93465 140.5601 26.93465 C 141.1271 26.93465 141.715 26.89182 142.2189 26.61329 C 143.0378 26.16338 143.9406 23.82805 144.0456 22.9068 C 144.2555 23.91378 145.0323 26.89182 145.6622 27.55595 C 146.1662 28.09161 147.0691 28.13443 147.762 28.13443 C 148.4129 28.13443 149.1267 28.15585 149.7147 27.83449 C 151.6043 26.84892 152.6752 18.1505 152.9061 16.0937 C 152.9691 15.57955 153.284 12.92287 152.948 12.64433 C 152.5911 12.3658 149.2317 12.1301 149.0428 12.60151 C 148.9797 12.7729 149.0007 12.94428 149.0007 13.11567 C 149.0427 14.87251 148.6648 21.72843 147.699 22.92822 Z M 143.6013 26.85072 C 143.2654 27.17207 143.8322 27.57908 144.1052 27.27914 C 144.5672 26.78639 143.7273 26.25074 143.6013 26.85072 Z M 141.5461 28.88748 C 141.903 28.84466 142.9738 28.54471 143.1209 28.17979 C 143.2468 27.87919 142.9948 27.62158 142.7009 27.68598 C 141.2731 28.02949 140.7272 28.54471 139.1525 27.79337 C 137.3468 26.93465 138.2916 29.25175 141.5461 28.88748 Z" fill-rule="evenodd" fill="#000000" fill-opacity="1" stroke="none" stroke-opacity="1" stroke-width="0.1" stroke-linecap="round" stroke-linejoin="round"/>
<path id="path_c215b7ea1cbe5270524d08e0646ec01c" d="M 160.0927 10.78214 C 159.6307 10.52502 159.4418 11.44627 159.9666 11.38203 C 160.2606 11.33912 160.3655 10.93211 160.0927 10.78214 Z M 155.7883 15.68833 C 156.0613 15.49553 156.9641 12.68887 157.615 12.02474 C 158.0559 11.57483 158.4549 11.70339 158.9588 11.55341 C 159.2738 11.44627 159.2528 11.03918 158.9378 10.97494 C 158.5179 10.88921 157.4261 11.42486 157.0901 11.70339 C 156.5442 12.17472 156.2083 12.83885 155.9563 13.52448 C 155.8934 13.67445 154.9485 16.28831 155.7883 15.68833 Z M 158.7278 25.18181 C 160.2186 25.07475 161.6883 25.05333 163.1791 25.13898 C 163.2421 25.82452 163.2211 26.68153 163.3681 27.34575 C 163.62 28.48121 167.1475 28.28841 167.6303 27.21719 C 168.2602 25.82452 165.9926 16.65478 165.5097 15.02649 C 165.2577 14.21239 164.9638 13.35538 164.4809 12.64834 C 163.956 11.87706 160.3026 11.85565 159.3787 12.02703 C 159.0428 12.09127 158.6858 12.17701 158.4129 12.39122 C 156.7752 13.63391 153.6047 26.14588 154.1927 27.40999 C 154.4866 28.0527 158.2659 28.267 158.4129 27.66711 C 158.6019 26.89583 158.6019 25.97449 158.7278 25.18181 Z M 159.1268 22.13953 C 159.5257 20.18849 159.7567 18.10873 160.4286 16.22202 C 160.8695 16.24343 161.5624 15.87901 161.9193 16.20061 C 162.2762 16.5008 163.0531 21.45341 163.0321 22.13953 C 161.7724 22.01089 160.3866 22.09662 159.1268 22.13953 Z" fill-rule="evenodd" fill="#000000" fill-opacity="1" stroke="none" stroke-opacity="1" stroke-width="0.1" stroke-linecap="round" stroke-linejoin="round"/>
<path id="path_5525b86b8636b5b247667a82db5cda6f" d="M 178.9953 22.09441 C 178.9742 21.79446 178.6804 21.77306 178.4494 21.79446 C 177.1686 21.90161 175.8038 22.15873 174.523 22.37295 C 174.628 21.0446 174.628 19.69485 174.649 18.36651 C 174.67 17.5095 174.733 12.73186 174.46 12.28194 C 174.355 12.11048 174.25 12.04624 174.0611 12.04624 C 172.8433 12.02483 171.3946 12.21763 170.1977 12.47475 C 169.9248 12.53899 169.3789 12.5604 169.4839 12.94608 C 169.9877 14.89572 169.8408 21.34455 169.7359 23.48699 L 169.5049 27.0221 C 169.5259 27.10783 169.6098 27.17207 169.6938 27.21498 C 169.8408 27.42919 177.4625 27.12925 178.5123 27.12925 C 178.7433 27.12925 179.0793 27.10783 179.1423 26.8293 C 179.2262 26.40079 179.0583 23.937 179.1003 23.18705 C 179.1213 22.92993 179.2892 22.24438 178.9953 22.09441 Z M 172.0034 28.92892 C 173.0533 28.92892 176.0348 28.99324 176.9166 28.86468 C 177.4415 28.77895 177.5465 28.02908 176.6017 28.09332 C 175.5728 28.15764 172.0665 28.02908 171.3105 28.26479 C 171.0166 28.37186 170.9326 28.69329 171.2266 28.86468 C 171.3526 28.92892 171.8355 28.92892 172.0034 28.92892 Z M 179.0787 28.17897 C 178.0289 28.0505 178.0289 28.80036 178.4908 28.8646 L 179.0368 28.92884 C 179.4777 28.97175 179.5827 28.24329 179.0787 28.17897 Z" fill-rule="evenodd" fill="#000000" fill-opacity="1" stroke="none" stroke-opacity="1" stroke-width="0.1" stroke-linecap="round" stroke-linejoin="round"/>
<path id="path_97536464b30852760da09bb9fc3fa9ee" d="M 185.5418 23.27172 C 186.2977 24.17155 189.4895 28.00661 190.6444 27.83522 C 191.1064 27.7709 193.1853 24.87859 193.1853 24.45009 C 193.1853 24.30012 193.1012 24.15014 192.9753 24.06441 C 192.3874 23.63599 191.5266 23.33604 190.8757 22.97177 C 189.9308 22.4362 189.0069 21.79349 188.1671 21.10786 C 190.2037 19.71528 192.1984 17.35854 193.4162 15.21602 C 193.5002 15.15178 193.5422 15.02322 193.4792 14.91607 C 193.4792 14.48757 190.9596 12.34512 190.5397 12.43085 C 190.3717 12.47369 190.3087 12.60224 190.2457 12.7308 C 189.3638 14.5733 187.4532 17.33714 185.8785 18.60115 C 185.8785 16.78007 185.9205 14.91607 186.0464 13.1164 C 186.0674 12.9236 186.1304 12.58075 185.8995 12.47369 C 185.2697 12.19515 181.4696 11.59526 181.3856 12.47369 C 181.2177 12.64507 181.1757 13.39494 181.1337 13.65205 C 180.6298 17.42278 180.7977 21.15069 181.1127 24.94292 C 181.1757 25.7356 181.2177 26.764 181.4906 27.51386 C 181.5746 27.70667 181.6585 27.8138 181.8685 27.85664 C 182.3723 27.96378 185.4585 28.04951 185.6475 27.68525 C 185.7105 27.55669 185.6684 27.40672 185.6473 27.27815 C 185.4996 25.94981 185.4996 24.60006 185.5418 23.27172 Z M 183.0822 13.54491 L 182.8112 13.65205 C 182.311 13.88768 182.1643 17.01569 182.2273 17.59417 C 182.2483 17.70132 182.2693 17.78705 182.2483 17.89411 C 182.1431 18.34403 181.5751 18.34403 181.428 17.89411 C 181.2597 17.35854 181.5108 14.85184 181.6363 14.20904 C 181.9083 12.73072 183.4147 12.21648 183.5821 13.03067 C 183.6449 13.33061 183.3739 13.60915 183.0822 13.54491 Z M 184.1483 13.50208 C 183.8333 13.3521 183.7913 12.90219 184.1273 12.7308 C 184.9252 12.34512 184.8831 13.86626 184.1483 13.50208 Z" fill-rule="evenodd" fill="#000000" fill-opacity="1" stroke="none" stroke-opacity="1" stroke-width="0.1" stroke-linecap="round" stroke-linejoin="round"/>
<path id="path_dd9a32b547eaa1d7a2d8548150edad93" d="M 200.2333 12.18142 C 199.9183 11.56012 196.8319 11.43156 196.8319 12.20284 C 196.8319 12.377 197.0628 12.46412 197.2098 12.48586 C 197.9657 12.59473 198.8265 12.30851 199.6244 12.44091 C 199.7714 12.46297 199.8973 12.57331 200.0443 12.55149 C 200.2123 12.52975 200.3173 12.3336 200.2333 12.18142 Z M 196.328 12.61573 C 196.5169 12.35861 196.412 11.90869 196.0762 11.86587 C 195.2577 11.78013 195.8664 13.21562 196.328 12.61573 Z M 197.2937 28.02058 C 197.7347 28.02058 199.6664 27.99917 199.9394 27.91344 C 200.1283 27.8492 200.2123 27.74205 200.2123 27.52776 L 200.1913 14.95146 C 200.1913 14.60869 200.2543 13.7945 199.8974 13.60171 C 199.7084 13.49456 199.0785 13.51598 198.8475 13.51598 C 198.2597 13.51598 195.1941 13.60171 195.0472 14.2016 C 195.0262 14.30866 195.4881 26.37088 195.5721 27.24931 C 195.5931 27.44211 195.6141 27.67781 195.7611 27.82778 C 196.013 28.06341 196.9578 28.02058 197.2937 28.02058 Z" fill-rule="evenodd" fill="#000000" fill-opacity="1" stroke="none" stroke-opacity="1" stroke-width="0.1" stroke-linecap="round" stroke-linejoin="round"/>
<path id="path_e69b0aa660cb2ad134869ef7ec02281f" d="M 206.2952 17.85056 C 207.5973 19.97158 208.4583 22.67109 209.1303 25.07066 C 209.1933 25.28495 209.2353 25.56348 209.4243 25.71346 C 209.5083 25.77769 209.6553 25.77769 209.7603 25.75628 C 210.8523 25.52058 211.8394 25.32777 212.9734 25.32777 C 213.3934 25.32777 214.3173 25.49916 214.3173 24.85645 C 214.3382 21.89982 214.3803 18.94318 214.4433 15.98656 C 214.4643 14.82961 214.4433 13.587 214.6112 12.45145 C 214.6322 12.34431 214.6532 12.23724 214.5902 12.15151 C 214.1073 12.02295 210.3899 12.25865 209.9908 12.43004 C 209.6338 12.58001 209.7809 12.98711 209.8228 13.28705 C 210.243 15.90083 210.453 18.81463 210.285 21.47131 C 209.529 19.20031 208.8781 16.8864 208.0172 14.65822 C 207.8492 14.2083 207.0723 12.21583 206.6944 12.06586 C 206.2324 11.87298 202.5788 12.60143 202.4739 13.09425 C 202.4319 13.28705 202.5998 14.76537 202.6208 15.08672 C 202.8938 18.10759 202.9148 23.18525 202.4739 26.14188 C 202.4109 26.54897 202.1379 27.57737 202.3689 27.92014 C 202.6208 28.2844 206.1483 28.17725 206.7362 28.13443 C 207.0721 28.11301 207.3871 27.98446 207.4291 27.59878 C 207.66 25.60631 206.7152 19.993 206.2952 17.85056 Z M 209.6766 27.6416 C 210.6215 27.51305 211.6713 27.57729 212.5954 27.36308 C 213.0574 27.25593 213.3725 26.44183 212.0493 26.54897 C 211.0624 26.63462 210.0756 26.67744 209.1308 27.0203 C 208.8158 27.12737 208.8158 27.55587 209.1518 27.6416 C 209.2987 27.68443 209.5297 27.66302 209.6766 27.6416 Z M 214.2333 26.65604 C 213.8344 26.54897 213.3515 27.0203 213.7924 27.29884 C 214.3803 27.66302 214.8002 26.80601 214.2333 26.65604 Z" fill-rule="evenodd" fill="#000000" fill-opacity="1" stroke="none" stroke-opacity="1" stroke-width="0.1" stroke-linecap="round" stroke-linejoin="round"/>
<path id="path_cd5cfe4386ca19ba7574518cab256ba6" d="M 225.3747 22.3718 C 223.9889 26.60349 219.5797 21.88584 221.8893 17.74717 C 222.4561 16.73928 224.4928 15.64567 225.0597 17.27371 C 225.1647 17.55224 225.0807 18.00216 225.1647 18.21637 C 225.2697 18.45208 228.7971 18.66629 229.28 18.58064 C 229.364 18.51632 229.385 18.38776 229.406 18.28069 C 229.448 17.83077 229.343 17.31654 229.322 16.84521 C 229.259 15.53852 229.343 14.23159 229.343 12.92474 C 228.6501 12.2177 226.1305 11.93918 225.1437 11.91776 C 219.8528 11.81062 216.1996 15.13119 216.4095 20.70101 C 216.4515 21.98637 216.7664 23.2933 217.3543 24.42876 C 220.5877 30.74911 230.2879 28.32812 229.8049 21.08653 C 229.7839 20.74376 229.7419 20.37949 229.49 20.14387 C 228.8811 19.5868 223.359 19.47966 223.1911 20.25093 C 223.149 20.48664 223.212 21.51495 223.233 21.8149 C 223.38 23.31446 224.3669 22.52177 225.3747 22.3718 Z M 223.0444 27.52473 C 221.8687 27.35335 218.5722 26.02501 218.4042 24.63242 C 218.3412 24.16101 218.8872 24.01104 219.1811 24.35389 C 220.3779 25.74648 221.8896 26.88202 223.8213 26.66772 C 223.9683 26.64631 224.0942 26.64631 224.2202 26.73204 C 224.4512 26.88202 224.5142 27.13905 224.3252 27.35335 C 224.0942 27.61047 223.3594 27.56756 223.0444 27.52473 Z M 224.9341 26.4321 C 225.0811 26.13215 225.522 26.11066 225.69 26.41061 C 226.1309 27.2462 224.5142 27.26762 224.9341 26.4321 Z" fill-rule="evenodd" fill="#000000" fill-opacity="1" stroke="none" stroke-opacity="1" stroke-width="0.1" stroke-linecap="round" stroke-linejoin="round"/>
<path id="path_88f59a9905761a261207d5ea815dcf12" d="M 240.7975 28.05017 C 241.1124 28.09299 244.0719 27.81479 244.8485 27.81479 C 244.9954 27.81479 245.3522 27.79337 245.4572 27.70773 C 245.5621 27.62215 245.5621 27.30112 245.5621 27.17273 C 245.4152 23.64138 245.1843 20.15285 245.1633 16.62151 C 245.8351 16.53594 246.486 16.60018 247.1578 16.60018 C 247.5362 16.60018 247.9985 16.60018 248.2926 16.32067 C 248.8389 15.80463 248.8179 13.2676 248.8179 12.4535 C 248.6079 12.11073 248.545 12.0464 248.1251 12.00358 C 244.7448 11.68222 241.3436 12.00358 237.9842 11.57507 C 237.7113 11.53225 237.1024 11.44651 236.8714 11.59649 C 236.7244 11.68222 236.6404 11.85361 236.5774 12.02499 C 236.4515 12.41067 236.3884 16.01002 236.5144 16.41711 C 236.5984 16.65273 236.7243 16.86703 236.9973 16.86703 C 237.9841 16.88844 239.181 16.56708 240.1888 16.45994 C 239.8529 18.90265 240.1048 23.87373 240.2517 26.44501 C 240.2727 26.74463 240.2517 28.3287 240.7975 28.05017 Z M 242.2023 13.48165 C 241.8663 13.3745 241.8243 12.92458 242.0973 12.73178 C 242.2652 12.62464 246.3176 12.38893 246.4226 12.43184 C 246.7165 12.5389 246.7795 13.05314 246.5065 13.22453 C 246.4226 13.26736 242.3493 13.52448 242.2023 13.48165 Z M 247.4322 13.2676 C 246.6343 12.62489 248.398 12.02499 248.0831 13.03197 C 247.9991 13.31051 247.6631 13.46048 247.4322 13.2676 Z" fill-rule="evenodd" fill="#000000" fill-opacity="1" stroke="none" stroke-opacity="1" stroke-width="0.1" stroke-linecap="round" stroke-linejoin="round"/>
<path id="path_5e79d2bd03b88a3e6b2bebfb363c5b42" d="M 258.2558 11.42486 C 258.4448 11.08208 258.1928 10.58926 257.8148 10.88921 C 257.2899 11.31771 258.0038 11.85336 258.2558 11.42486 Z M 262.7482 13.78323 C 262.8952 13.14051 260.1027 10.80518 258.9059 11.29793 C 258.6119 11.42649 258.6539 11.81217 258.9478 11.89782 C 260.1867 12.30492 261.4044 12.81907 262.2443 13.84747 C 262.3702 14.01885 262.6852 14.04034 262.7482 13.78323 Z M 258.3179 27.68787 C 259.3677 27.51648 259.9557 27.19512 260.5856 26.29528 C 261.3624 25.15974 261.8244 23.8314 262.2233 22.52455 C 263.4201 18.60377 263.462 14.40453 259.0948 12.73342 C 257.5411 12.13353 255.6304 11.96214 253.9927 12.15494 C 251.8931 12.39056 250.4023 13.46187 249.9824 15.66856 C 249.7094 17.14687 250.0034 18.66809 250.2343 20.12491 C 250.6123 22.46023 251.3891 25.75963 253.4678 27.15229 C 254.7065 27.98781 256.9112 27.92357 258.3179 27.68787 Z M 256.5321 22.80309 C 256.1331 22.80309 255.7131 22.71735 255.3772 22.48173 C 254.4951 21.83893 254.1591 18.3039 254.5791 17.31834 C 254.8731 16.63271 255.5452 16.54706 256.1962 16.58988 C 257.3512 16.65412 258.5482 17.27551 258.6322 18.56094 C 258.6952 19.5251 258.3172 21.81751 257.6241 22.48173 C 257.3301 22.76026 256.9312 22.80309 256.5321 22.80309 Z" fill-rule="evenodd" fill="#000000" fill-opacity="1" stroke="none" stroke-opacity="1" stroke-width="0.1" stroke-linecap="round" stroke-linejoin="round"/>
<path id="path_bd6019a71eca4abbac76c94de004f60c" d="M 275.6133 26.48808 C 276.2011 25.37411 276.3271 24.00294 276.4112 22.76042 C 276.5581 20.74646 276.0962 15.86168 275.8023 13.74056 C 275.7603 13.46211 275.7393 13.16209 275.6973 12.88364 C 275.6762 12.69076 275.5503 12.62652 275.3824 12.56219 C 274.8994 12.3694 271.9179 12.32657 271.5819 12.75507 C 270.952 13.54777 272.5058 20.0395 271.8565 21.79635 C 271.6681 22.28909 271.1025 22.78184 270.5581 22.78184 C 268.4429 22.76042 269.0503 19.43961 269.2387 18.06836 C 269.3225 17.53279 270.1184 13.31206 270.0974 13.24782 C 270.0555 13.05502 269.9717 12.90505 269.7832 12.84081 C 269.6366 12.77649 268.5473 12.73367 268.3169 12.73367 C 267.7919 12.71225 266.3637 12.64801 265.9857 13.0122 C 265.6077 13.35497 264.8726 21.88208 264.8516 22.9533 C 264.8307 23.7674 264.8307 24.62434 265.1872 25.37411 C 266.1939 27.43075 270.9965 28.07346 273.0307 28.07346 C 274.1016 28.07346 275.1093 27.45216 275.6133 26.48808 Z M 264.8936 26.95966 C 264.3268 26.74545 264.6417 28.00922 265.1456 27.51656 C 265.3766 27.30235 265.2296 26.89542 264.8936 26.95966 Z M 270.7099 29.44471 C 270.9408 29.33756 271.0037 28.99479 270.7518 28.86623 C 270.2899 28.63052 268.9251 28.65202 268.2742 28.50204 C 267.5814 28.35207 266.9515 28.13778 266.2796 27.85925 C 265.9226 27.70927 265.6917 28.18061 265.9017 28.35207 C 266.6785 29.0162 269.786 29.87321 270.7099 29.44471 Z" fill-rule="evenodd" fill="#000000" fill-opacity="1" stroke="none" stroke-opacity="1" stroke-width="0.1" stroke-linecap="round" stroke-linejoin="round"/>
<path id="path_a141612c91fefebaa89c5047cdbd4b40" d="M 289.1579 13.53485 C 289.011 12.76357 288.0871 13.25632 288.549 13.70624 C 288.78 13.94195 289.263 14.00619 289.1579 13.53485 Z M 283.2585 23.94868 C 283.8464 24.78428 286.408 27.93371 287.3318 27.95512 C 288.1086 27.97653 290.7122 25.44841 290.0193 25.01991 C 288.6335 24.14156 287.2059 23.22023 285.989 22.10618 C 288.2146 21.2705 290.2932 18.91344 289.5163 16.34216 C 288.8235 14.07083 286.4089 13.25657 284.3297 13.17083 C 282.5868 13.0851 280.8649 13.42796 279.185 13.85654 C 278.912 13.92078 278.1142 14.00651 278.3242 14.43502 C 278.912 15.67779 278.87 23.32738 278.849 24.91283 C 278.828 25.76984 278.6181 27.01246 278.786 27.84797 C 278.807 27.95512 278.8911 28.04077 278.996 28.08368 C 279.29 28.19074 282.6917 28.1265 283.0066 28.06226 C 283.4685 27.95512 283.3636 27.29091 283.3425 26.92672 C 283.3005 25.94115 283.3005 24.93425 283.2585 23.94868 Z M 282.7334 16.27858 C 286.765 15.46448 287.2059 18.84961 283.0274 19.4495 C 282.9224 18.39969 282.9435 17.32838 282.7334 16.27858 Z M 287.4996 12.49395 C 287.7094 12.42971 287.6884 12.17259 287.5415 12.04404 C 287.3317 11.87265 285.6526 11.59412 285.3378 11.5727 C 284.4349 11.48697 283.5531 11.5727 282.6503 11.61512 C 282.4822 11.61512 282.0623 11.65754 281.9364 11.76354 C 281.7684 11.89071 281.7684 12.25114 282.0204 12.27238 C 283.5951 12.44197 285.3798 12.02262 286.9119 12.3868 C 287.0379 12.4083 287.3736 12.53678 287.4996 12.49395 Z" fill-rule="evenodd" fill="#000000" fill-opacity="1" stroke="none" stroke-opacity="1" stroke-width="0.1" stroke-linecap="round" stroke-linejoin="round"/>
<path id="path_e0a0847dc8d9388b6d8ff931c28c50a8" d="M 299.4394 27.62248 C 301.5803 26.97977 303.2594 24.64444 302.5877 22.35226 C 301.5593 18.86073 295.9972 18.34665 295.5565 17.12569 C 295.0738 15.84043 296.9418 14.94076 297.9492 15.28345 C 299.0406 15.66904 299.0197 16.84717 299.1665 17.76842 C 299.2085 18.06836 299.4184 18.08978 299.6703 18.11118 C 300.0061 18.15409 302.8816 17.87556 303.1964 17.76842 C 303.7002 17.59703 303.6581 16.86858 303.6371 16.44024 C 303.5322 14.9191 302.7769 13.65499 301.4971 12.84089 C 299.6089 11.64111 296.9435 11.66252 294.9068 12.49812 C 293.2271 13.20508 291.6524 14.7048 291.4214 16.63303 C 290.8755 21.23838 296.7755 20.18882 297.8463 22.67355 C 298.1613 23.38042 297.8883 24.47289 296.9855 24.47289 C 295.8517 24.47289 296.2926 23.33751 296.0196 22.80194 C 295.8096 22.37344 292.7652 22.90909 292.4082 23.23045 C 292.2193 23.40183 292.2193 23.63746 292.2403 23.87316 C 292.4501 27.81528 296.3751 28.52232 299.4394 27.62248 Z M 298.6404 26.61648 C 298.8083 26.40218 300.4671 26.0165 300.9709 24.77357 C 301.1599 24.30215 301.2229 24.00221 301.2229 23.48789 C 301.2229 22.99499 302.1674 22.71645 302.0628 23.89458 C 301.9368 25.50194 300.6561 26.78778 299.1863 27.28077 C 298.7873 27.40933 298.3465 26.98074 298.6404 26.61648 Z M 297.373 27.42903 C 296.7222 26.80772 298.2548 26.29356 298.0869 27.19341 C 298.0239 27.51476 297.6249 27.66473 297.373 27.42903 Z" fill-rule="evenodd" fill="#000000" fill-opacity="1" stroke="none" stroke-opacity="1" stroke-width="0.1" stroke-linecap="round" stroke-linejoin="round"/>
<path id="path_37b18be6412f5df45842081f29749c3c" d="M 17.398 40.58012 C 31.21388 26.3826 32.58093 19.73051 32.47684 15.65324 C 32.23863 6.323079 24.46539 -0.6812587 15.15833 0.0167871 C 8.87255 0.4882312 3.370457 4.77413 1.309643 10.73117 C -1.374405 18.48972 2.556285 24.39793 4.689804 27.49738 C 6.220482 29.72107 8.910667 33.16449 11.08085 35.68037 C 11.18256 35.79828 15.84141 41.33438 16.46354 41.30517 C 16.65257 41.29629 16.87009 41.12262 17.398 40.58012 Z M 15.69026 38.90552 C 10.11281 32.94794 5.596028 26.99429 3.757099 23.57076 C -0.1695945 16.26049 2.523914 10.54091 4.006695 8.205889 C 5.417038 5.984936 9.183913 1.696552 15.22421 1.334925 C 18.8933 1.115258 27.56695 2.464122 30.49448 11.56139 C 31.8082 15.64376 31.67189 20.22344 27.36246 26.55393 C 23.52153 32.19619 17.23823 39.02804 16.42809 39.65406 C 16.41275 39.63968 16.42295 39.68814 15.69026 38.90552 Z M 9.854935 28.93926 C 7.978531 31.15422 16.35332 30.55032 18.91723 28.52751 C 20.94299 26.92925 21.12313 25.28216 23.37638 24.30131 C 25.12534 23.53997 27.25945 24.13926 27.1424 23.03273 C 27.02245 21.89864 22.61844 22.44534 20.35046 25.19434 C 17.08827 29.14841 16.98601 28.8298 9.854935 28.93926 Z M 11.11816 14.58788 C 10.38863 15.08866 10.53661 19.16385 9.59317 21.8023 C 8.381287 25.1915 5.359547 25.6529 7.455185 26.32115 C 9.881805 24.94215 11.07628 21.26703 11.13696 21.15561 C 14.85028 24.83258 14.67505 28.83641 15.7366 27.03572 C 16.74449 25.32607 11.44678 20.0647 11.31582 19.17216 C 11.18259 18.26417 12.85832 13.39332 11.11816 14.58788 Z M 14.55389 19.20657 C 15.38604 15.02216 15.14661 15.91795 15.32769 15.40604 C 16.6874 17.06945 15.36898 16.75979 17.93677 17.85842 C 18.01199 17.8906 20.01469 19.01834 19.98103 17.79158 C 19.96352 17.15318 18.96115 17.12673 17.19995 16.22237 C 15.54576 13.39667 15.16274 10.11553 10.39121 12.42537 C 8.165123 13.503 5.966995 18.51343 7.339371 18.58033 C 8.309685 18.62763 8.952637 14.92946 10.09429 13.93937 C 11.50727 12.71399 13.86137 12.60218 14.30107 13.32979 C 14.61975 13.85715 13.27894 18.82298 13.40526 19.42606 C 13.61646 20.43437 14.2787 20.20994 15.50816 22.78426 C 15.95378 23.71733 16.56445 26.24702 16.98204 26.47804 C 18.71392 27.43617 16.97686 22.97077 16.49118 22.0066 C 16.46054 21.94578 16.6074 22.17461 14.55389 19.20657 Z M 24.0929 8.521777 C 23.35439 7.232297 19.34909 10.49475 21.48206 13.60592 C 23.59241 16.68412 27.42864 14.2459 27.12706 13.27374 C 26.87503 12.46129 24.96036 13.54053 23.91817 11.76855 C 22.96211 10.143 24.38376 9.029646 24.0929 8.521777 Z M 15.28394 11.20365 C 18.74107 10.27872 16.93431 4.931569 13.65237 6.358516 C 11.30814 7.377764 11.72803 12.15502 15.28394 11.20365 Z M 14.17303 10.02522 C 12.89971 9.563945 13.17901 7.90804 14.04958 7.520307 C 14.30532 7.406408 14.77137 7.430219 14.86935 7.443048 C 16.61951 7.672243 16.03375 10.69928 14.17303 10.02522 Z" fill-rule="evenodd" fill="#000000" fill-opacity="1" stroke="#000000" stroke-opacity="1" stroke-width="0.1" stroke-linecap="round" stroke-linejoin="round"/>
</defs>
<g>
<g>
<use xlink:href="#path_a804f8b2661a56bbad1be4935fe6c12b"/>
</g>
<g>
<use xlink:href="#path_aa7d5050e85088f10fb34c87cefb66df"/>
</g>
<g>
<use xlink:href="#path_554ccde558f46f37526103ba2282be8d"/>
</g>
<g>
<use xlink:href="#path_4cc4acff0d02d441fc142f8bdffa34c7"/>
</g>
<g>
<use xlink:href="#path_811f61c365972d3c5016f70bee350d96"/>
</g>
<g>
<use xlink:href="#path_7bbd225650d9e5980b92b53d94c01d51"/>
</g>
<g>
<use xlink:href="#path_c215b7ea1cbe5270524d08e0646ec01c"/>
</g>
<g>
<use xlink:href="#path_5525b86b8636b5b247667a82db5cda6f"/>
</g>
<g>
<use xlink:href="#path_97536464b30852760da09bb9fc3fa9ee"/>
</g>
<g>
<use xlink:href="#path_dd9a32b547eaa1d7a2d8548150edad93"/>
</g>
<g>
<use xlink:href="#path_e69b0aa660cb2ad134869ef7ec02281f"/>
</g>
<g>
<use xlink:href="#path_cd5cfe4386ca19ba7574518cab256ba6"/>
</g>
<g>
<use xlink:href="#path_88f59a9905761a261207d5ea815dcf12"/>
</g>
<g>
<use xlink:href="#path_5e79d2bd03b88a3e6b2bebfb363c5b42"/>
</g>
<g>
<use xlink:href="#path_bd6019a71eca4abbac76c94de004f60c"/>
</g>
<g>
<use xlink:href="#path_a141612c91fefebaa89c5047cdbd4b40"/>
</g>
<g>
<use xlink:href="#path_e0a0847dc8d9388b6d8ff931c28c50a8"/>
</g>
</g>
<g>
<use xlink:href="#path_37b18be6412f5df45842081f29749c3c"/>
</g>
</svg>