<?xml version="1.0" encoding="utf-8"?>
<!DOCTYPE svg PUBLIC "-//W3C//DTD SVG 1.1//EN" "http://www.w3.org/Graphics/SVG/1.1/DTD/svg11.dtd">
<!-- exported from Silhouette Studio® Business Edition V4.5.735ssbe -->
<svg version="1.1" xmlns="http://www.w3.org/2000/svg" xmlns:xlink="http://www.w3.org/1999/xlink" width="50.80001mm" height="50.80001mm" viewBox="0 0 50.80001 50.80001">
<defs>
<path id="path_3c1fef3bc6a12fbdefd0014f80d8d71b" d="M 24.49886 47.28963 C 17.81566 40.15096 12.40345 33.01697 10.19994 28.91473 C 5.49477 20.15519 8.722271 13.30169 10.49901 10.50374 C 12.18896 7.842484 16.70265 2.703922 23.94041 2.270601 C 28.3369 2.007387 38.73015 3.623667 42.23807 14.52449 C 43.81223 19.41618 43.64886 24.90379 38.48508 32.48932 C 33.88269 39.25016 26.35371 47.43643 25.38297 48.18656 C 25.36461 48.16933 25.37682 48.22742 24.49886 47.28963 Z" fill-rule="evenodd" fill="#000000" fill-opacity="1" stroke="none" stroke-opacity="1" stroke-width="0.1" stroke-linecap="round" stroke-linejoin="round"/>
<path id="path_b1159ae3ee9118dbda3927b823c9b589" d="M 26.54518 49.29623 C 43.10007 32.28402 44.73813 24.31314 44.61339 19.42756 C 44.32796 8.247676 35.01369 -0.1452827 23.86148 0.6911507 C 16.32954 1.25606 9.736645 6.391644 7.267269 13.52968 C 4.051106 22.82637 8.761059 29.90588 11.31755 33.61981 C 13.15168 36.28434 16.3752 40.41042 18.97563 43.42509 C 19.0975 43.56636 24.67999 50.20002 25.42546 50.16502 C 25.65198 50.15438 25.9126 49.94628 26.54518 49.29623 Z M 24.49886 47.28963 C 17.81567 40.15096 12.40345 33.01698 10.19994 28.91473 C 5.49477 20.15519 8.722271 13.3017 10.499 10.50375 C 12.18895 7.842492 16.70262 2.703932 23.94041 2.270611 C 28.3369 2.007397 38.73012 3.623674 42.23805 14.52449 C 43.81221 19.41619 43.64886 24.9038 38.48508 32.48932 C 33.88269 39.25016 26.35371 47.43643 25.38297 48.18656 C 25.36461 48.16933 25.37682 48.22741 24.49886 47.28963 Z M 17.50668 35.34754 C 15.25828 38.00163 25.29338 37.27799 28.36559 34.85416 C 30.79297 32.93905 31.0088 30.96541 33.70876 29.79011 C 35.80447 28.87784 38.36166 29.59594 38.22142 28.27004 C 38.07768 26.91111 32.80055 27.56619 30.08295 30.86019 C 26.17403 35.59815 26.0515 35.21638 17.50668 35.34754 Z M 19.02032 18.15098 C 18.14618 18.75104 18.32352 23.63414 17.19304 26.79567 C 15.74089 30.85678 12.12008 31.40966 14.63118 32.21039 C 17.53888 30.558 18.97015 26.15428 19.04288 26.02078 C 23.49237 30.42671 23.28238 35.2243 24.5544 33.06661 C 25.7621 31.01802 19.41411 24.71359 19.2572 23.6441 C 19.09756 22.5561 21.1055 16.7196 19.02032 18.15098 Z M 23.13721 23.68533 C 24.13434 18.67135 23.84744 19.74473 24.06442 19.13134 C 25.6937 21.12453 24.11389 20.75348 27.19077 22.06991 C 27.2809 22.10847 29.68063 23.45978 29.64032 21.98982 C 29.61932 21.22485 28.41823 21.19316 26.30786 20.10951 C 24.32574 16.72361 23.86678 12.79199 18.14928 15.55976 C 15.48186 16.85102 12.84795 22.85477 14.4924 22.93494 C 15.65508 22.99161 16.42549 18.56028 17.79349 17.37391 C 19.48659 15.90559 22.3074 15.77162 22.83427 16.64347 C 23.21613 17.27538 21.60948 23.22569 21.76086 23.94834 C 22.01395 25.15655 22.80748 24.88762 24.28067 27.97231 C 24.81462 29.09035 25.54636 32.12156 26.04675 32.39838 C 28.12196 33.54647 26.04053 28.1958 25.45856 27.04047 C 25.42184 26.9676 25.59782 27.24179 23.13721 23.68533 Z M 34.56734 10.88227 C 33.68242 9.337146 28.88306 13.24639 31.43889 16.97435 C 33.96764 20.66281 38.56441 17.7412 38.20305 16.57632 C 37.90105 15.60279 35.60677 16.89599 34.35797 14.77272 C 33.21237 12.82491 34.91586 11.49082 34.56734 10.88227 Z M 24.01198 14.09583 C 28.1545 12.98752 25.98955 6.580296 22.05699 8.290136 C 19.248 9.511452 19.7511 15.2358 24.01198 14.09583 Z M 22.68086 12.68376 C 21.15511 12.13104 21.48976 10.14686 22.53291 9.682255 C 22.83937 9.545776 23.39781 9.574306 23.5152 9.58968 C 25.61235 9.864313 24.91048 13.49146 22.68086 12.68376 Z" fill-rule="evenodd" fill="#FFFFFF" fill-opacity="1" stroke="none" stroke-opacity="1" stroke-width="0.1" stroke-linecap="round" stroke-linejoin="round"/>
</defs>
<g>
<g>
<use xlink:href="#path_3c1fef3bc6a12fbdefd0014f80d8d71b"/>
</g>
<g>
<use xlink:href="#path_b1159ae3ee9118dbda3927b823c9b589"/>
</g>
</g>
</svg>